<svg xmlns="http://www.w3.org/2000/svg" width="202.459" height="49.336" viewBox="0 0 202.459 49.336">
  <g id="Group_160" data-name="Group 160" transform="translate(-431 883)">
    <path id="Path_4067" data-name="Path 4067" d="M48.7,26.828V61.546h5.45V29.378Z" transform="translate(401.548 -899.226)" fill="#466b33"/>
    <path id="Path_4068" data-name="Path 4068" d="M0,41.089H5.645V5.76L0,3.209Z" transform="translate(431 -884.941)" fill="#466b33"/>
    <path id="Path_4069" data-name="Path 4069" d="M24.383,0V49.336H30V2.55Z" transform="translate(416.253 -883)" fill="#466b33"/>
    <g id="Group_155" data-name="Group 155" transform="translate(461.521 -870.291)">
      <path id="Path_4070" data-name="Path 4070" d="M94.617,37.982q.916-2.078,1.5-3.46t.67-1.6h5.826V33.2a2.961,2.961,0,0,0-1.71.465A2.253,2.253,0,0,0,100.1,34.7a5.654,5.654,0,0,0-.219,1.45q-.055.985-.082,1.941-.028,1.314-.027,2.544v5.442q0,1.45.027,3.064a8.231,8.231,0,0,0,.068,1.053,2.388,2.388,0,0,0,.232.834,1.888,1.888,0,0,0,.205.261,2.9,2.9,0,0,0,.506.437,3.438,3.438,0,0,0,.821.41,3.856,3.856,0,0,0,1.149.205v.273H93.4v-.3a4.477,4.477,0,0,0,1.969-.492,2.4,2.4,0,0,0,1.067-1.012,3.383,3.383,0,0,0,.246-.89,10.345,10.345,0,0,0,.109-1.08q.055-1.8.055-3.446V34.262q-.9,2.024-1.655,3.72T93.7,41.292q-.738,1.615-1.491,3.3t-1.655,3.706q-.138.274-.383.862t-.492,1.2q-.246.615-.465,1.121c-.146.337-.237.561-.273.669h-.164q-.875-2.024-1.737-4.021t-1.682-3.842q-.821-1.846-1.532-3.46t-1.285-2.872q-.574-1.258-.944-2.106T81.092,34.7q0,1.806-.014,3.187t-.028,2.735q-.014,1.354-.013,2.859v3.5q0,1.286.082,2.229a4.3,4.3,0,0,0,.41,1.587,2.376,2.376,0,0,0,1,1.012,5.448,5.448,0,0,0,1.847.533v.273H77.235v-.273a4.8,4.8,0,0,0,1.559-.56,2.67,2.67,0,0,0,.957-1.026,5.251,5.251,0,0,0,.52-1.627,16.413,16.413,0,0,0,.191-2.366q.055-1.175.082-2.776t.027-3.433V37.107q0-.547-.027-1.34a2.349,2.349,0,0,0-1.039-2,2.929,2.929,0,0,0-.876-.4q-.465-.123-.793-.178v-.273h5.826L90.2,47.8q1.2-2.6,2.352-5.169t2.065-4.65" transform="translate(-77.235 -32.621)" fill="#ffffff"/>
      <path id="Path_4071" data-name="Path 4071" d="M165.8,46.261a10.148,10.148,0,0,1-2.229,3.227,9.829,9.829,0,0,1-3.282,2.106,11.078,11.078,0,0,1-7.918.014,9.843,9.843,0,0,1-3.255-2.051,9.643,9.643,0,0,1-2.2-3.173,10.026,10.026,0,0,1-.807-4.061,10.15,10.15,0,0,1,.848-4.226,9.505,9.505,0,0,1,2.284-3.173,10.047,10.047,0,0,1,3.365-2,11.842,11.842,0,0,1,4.062-.7,10.173,10.173,0,0,1,4.171.821,9.487,9.487,0,0,1,3.131,2.2,9.643,9.643,0,0,1,1.97,3.187,10.572,10.572,0,0,1,.684,3.775,9.909,9.909,0,0,1-.821,4.048M162.8,38.876a10.673,10.673,0,0,0-1.286-3.077,7.334,7.334,0,0,0-2.147-2.243,5.328,5.328,0,0,0-3.037-.861,5.439,5.439,0,0,0-3.077.861,7.031,7.031,0,0,0-2.134,2.229,10.335,10.335,0,0,0-1.231,3.1,15.743,15.743,0,0,0-.4,3.515,14.489,14.489,0,0,0,.438,3.583,9.984,9.984,0,0,0,1.3,3.036A6.8,6.8,0,0,0,153.4,51.13a5.684,5.684,0,0,0,3.023.793,5.15,5.15,0,0,0,3-.876,7.4,7.4,0,0,0,2.12-2.256,10.875,10.875,0,0,0,1.272-3.1,14.385,14.385,0,0,0,.424-3.446,13.841,13.841,0,0,0-.424-3.364" transform="translate(-118.89 -32.202)" fill="#ffffff"/>
      <path id="Path_4072" data-name="Path 4072" d="M217.935,52.573q-.248-.247-.356-.369t-.246-.287a5.086,5.086,0,0,1-.342-.478q-.2-.315-.643-.944-.52-.765-.916-1.381t-.807-1.218q-.411-.6-.889-1.217T212.6,45.3a11.263,11.263,0,0,0-1.189-1.176,2.953,2.953,0,0,0-1.354-.684,4.179,4.179,0,0,0-.793-.109c-.164,0-.374-.009-.629-.028v3.091q0,1.312.027,2.216.027.875.055,1.5a1.992,1.992,0,0,0,.3,1.04,2.409,2.409,0,0,0,.848.725,3.857,3.857,0,0,0,1.75.424v.273h-8.753V52.3a7.692,7.692,0,0,0,1.313-.329,2.144,2.144,0,0,0,.985-.656,1.257,1.257,0,0,0,.219-.492,5.221,5.221,0,0,0,.123-.739c.027-.274.05-.565.068-.875s.027-.611.027-.9q0-.383.013-1.04t.028-1.436q.013-.779.013-1.6v-6.92q0-.493-.013-1t-.055-.957a5.147,5.147,0,0,0-.137-.82,1.165,1.165,0,0,0-.26-.533,2.054,2.054,0,0,0-.916-.588,9.2,9.2,0,0,0-1.244-.26V32.88h1.121q.93,0,2.106-.013t2.352-.014h1.915q1.832,0,3.255.11a6.493,6.493,0,0,1,2.6.739,5.265,5.265,0,0,1,1.943,1.709,4.718,4.718,0,0,1,.739,2.722,4.324,4.324,0,0,1-.369,1.819,4.847,4.847,0,0,1-.985,1.422,6.039,6.039,0,0,1-1.436,1.053,11.194,11.194,0,0,1-1.723.739v.082a3.529,3.529,0,0,1,.9.711,10,10,0,0,1,.848,1.04q.711,1.04,1.546,2.243t1.491,2.133a8.368,8.368,0,0,0,1.97,2.079,5.275,5.275,0,0,0,2.243.848v.273Zm-2.709-17.04a4.723,4.723,0,0,0-2-1.7,6.017,6.017,0,0,0-1.381-.437,8.2,8.2,0,0,0-1.518-.137q-.575,0-.93.028c-.237.018-.42.037-.547.054-.019.11-.037.205-.055.288a2.229,2.229,0,0,0-.041.315q-.014.191-.027.533c-.009.228-.023.552-.041.971q-.028.958-.041,2.161t-.013,2.325v3.009q1.121,0,2.092-.1a8.542,8.542,0,0,0,1.873-.4,5.028,5.028,0,0,0,1.5-.739,4.31,4.31,0,0,0,1.026-1.053,4.378,4.378,0,0,0,.588-1.272,5.264,5.264,0,0,0,.191-1.422,4.415,4.415,0,0,0-.684-2.435" transform="translate(-153.218 -32.579)" fill="#ffffff"/>
      <path id="Path_4073" data-name="Path 4073" d="M270.136,49.119a5.324,5.324,0,0,1-1.477,1.778,6.262,6.262,0,0,1-2.256,1.093,10.984,10.984,0,0,1-2.873.356,13.771,13.771,0,0,1-2.3-.164,8.991,8.991,0,0,1-1.586-.4,5.59,5.59,0,0,1-.944-.424,1.226,1.226,0,0,0-.4-.191c-.055,0-.173.109-.356.328s-.347.429-.492.63h-.246l-.082-5.444h.273a8.7,8.7,0,0,0,.629,1.436,11.959,11.959,0,0,0,.835,1.313,7.374,7.374,0,0,0,.957,1.08,4.737,4.737,0,0,0,.971.712,7.786,7.786,0,0,0,1.231.492,5.131,5.131,0,0,0,4.759-.862,3.787,3.787,0,0,0,1.258-2.995,3.378,3.378,0,0,0-.246-1.341,3.136,3.136,0,0,0-.671-1,4.042,4.042,0,0,0-1-.725,10.944,10.944,0,0,0-1.231-.547q-.656-.246-1.148-.41c-.328-.109-.634-.214-.916-.315s-.574-.2-.875-.3-.661-.232-1.081-.4a5.915,5.915,0,0,1-1.368-.752,5.567,5.567,0,0,1-1.148-1.122,5.687,5.687,0,0,1-.794-1.422,4.563,4.563,0,0,1-.3-1.655,5.571,5.571,0,0,1,.539-2.544,5.194,5.194,0,0,1,1.449-1.778,6.116,6.116,0,0,1,2.1-1.053,9.018,9.018,0,0,1,2.5-.342,9.357,9.357,0,0,1,2.106.205,8.409,8.409,0,0,1,1.436.451,4.922,4.922,0,0,1,.848.451,1.884,1.884,0,0,0,.315.205c.055,0,.168-.109.341-.328s.333-.437.479-.656h.3V37.55h-.3a11.051,11.051,0,0,0-.848-1.792,8.1,8.1,0,0,0-1.2-1.586,5.8,5.8,0,0,0-1.559-1.135,4.286,4.286,0,0,0-1.943-.438,5.107,5.107,0,0,0-1.6.246,3.708,3.708,0,0,0-1.313.739,3.392,3.392,0,0,0-.875,1.217,4.12,4.12,0,0,0-.314,1.655,3.149,3.149,0,0,0,.873,2.326,6.216,6.216,0,0,0,2.266,1.395q.544.219,1.023.383t.941.315q.464.151.942.315t1,.356a6.353,6.353,0,0,1,2.878,1.983,5.561,5.561,0,0,1,.49,5.593" transform="translate(-186.04 -32.161)" fill="#ffffff"/>
      <path id="Path_4074" data-name="Path 4074" d="M311.338,52.615v-.273a5.581,5.581,0,0,0,1.7-.369,1.882,1.882,0,0,0,.9-.643.969.969,0,0,0,.1-.328q.04-.247.068-.574t.04-.684c.009-.237.014-.466.014-.684q.027-.9.027-1.861V42.878h-10.8v5.881q0,.793.028,1.531a1.945,1.945,0,0,0,.246,1.039,2.049,2.049,0,0,0,.93.712,4.178,4.178,0,0,0,1.176.3v.273h-8.069v-.273A5.892,5.892,0,0,0,299,51.973a2.479,2.479,0,0,0,.957-.643,1.127,1.127,0,0,0,.178-.451,6.561,6.561,0,0,0,.109-.725q.041-.41.068-.889c.018-.319.027-.625.027-.916q0-.383.015-1.039t.027-1.436q.014-.779.013-1.6v-7.9q0-.493-.04-.916a5.852,5.852,0,0,0-.123-.766,1.27,1.27,0,0,0-.246-.533,2.176,2.176,0,0,0-.944-.67,5.571,5.571,0,0,0-1.272-.287v-.273h8.151V33.2a8.367,8.367,0,0,0-.821.164,2.6,2.6,0,0,0-.793.342,1.946,1.946,0,0,0-.6.643,2.184,2.184,0,0,0-.274,1.04q-.027.957-.04,2.065t-.015,2.12v2.762h10.8v-4.4q0-.711-.027-1.614-.028-.519-.068-1.08a2.021,2.021,0,0,0-.26-.916,2.066,2.066,0,0,0-1.121-.916,5.516,5.516,0,0,0-1.258-.205v-.273h8.233V33.2a4.392,4.392,0,0,0-1.285.369,1.939,1.939,0,0,0-.93.834,1.617,1.617,0,0,0-.164.533c-.036.228-.064.484-.082.766s-.027.57-.027.861V45.5q0,.766.013,1.587t.013,1.805q0,.793.042,1.464a2,2,0,0,0,.2.916,1.884,1.884,0,0,0,.958.766,5.769,5.769,0,0,0,1.313.3v.273Z" transform="translate(-210.572 -32.621)" fill="#ffffff"/>
      <path id="Path_4075" data-name="Path 4075" d="M376.517,52.615h-16.74v-.273a5.633,5.633,0,0,0,1.272-.356,2.606,2.606,0,0,0,.971-.684,1.241,1.241,0,0,0,.219-.479q.082-.314.15-.725a8.3,8.3,0,0,0,.1-.861c.017-.3.027-.6.027-.889q0-.383.014-1.039t.027-1.436q.014-.779.014-1.6v-6.92q0-.493-.014-1.012t-.055-.985a5.2,5.2,0,0,0-.137-.834,1.169,1.169,0,0,0-.26-.533,1.87,1.87,0,0,0-.875-.561,11.387,11.387,0,0,0-1.2-.233v-.273h15.1l1.86,4.513-.273.137a13.332,13.332,0,0,0-4.157-3.72,6.638,6.638,0,0,0-1.723-.383,24.124,24.124,0,0,0-3.064-.164q-.574,0-1.19.041a7.679,7.679,0,0,0-.889.1q-.055.437-.1,1.805t-.041,3.173v1.751c0,.474,0,.861.014,1.162s.013.533.013.7v.3h.547q.41,0,.943-.027t1.067-.069a6.07,6.07,0,0,0,.89-.123,4.758,4.758,0,0,0,1.368-.519,3.008,3.008,0,0,0,.888-.793,3.889,3.889,0,0,0,.547-1.081,13.087,13.087,0,0,0,.37-1.381h.328v8.615H372.2a9.362,9.362,0,0,0-.671-1.8,4.815,4.815,0,0,0-.943-1.4,3.64,3.64,0,0,0-1.053-.629,4.734,4.734,0,0,0-1.436-.3q-.411-.027-.685-.041t-.546-.013H365.6a8.658,8.658,0,0,0-.055,1.121v3.282c0,.292,0,.57.014.834s.013.488.013.67q.027.877.1,1.655a2.613,2.613,0,0,0,.315,1.163,1.718,1.718,0,0,0,1.176.547,11.735,11.735,0,0,0,2.024.164q.465,0,1.189-.027t1.519-.137a5.969,5.969,0,0,0,1.614-.424,5.662,5.662,0,0,0,1.423-.89,9.054,9.054,0,0,0,1.327-1.408,18.982,18.982,0,0,0,1.326-2.011l.3.083Z" transform="translate(-248.124 -32.621)" fill="#ffffff"/>
      <path id="Path_4076" data-name="Path 4076" d="M429.86,46.063a8.808,8.808,0,0,1-1.34,2.68,7.93,7.93,0,0,1-1.97,1.86,10.72,10.72,0,0,1-2.379,1.176,13.161,13.161,0,0,1-2.6.616,19.766,19.766,0,0,1-2.6.178h-9.984V52.3a4.861,4.861,0,0,0,1.327-.356,2.589,2.589,0,0,0,.97-.657.925.925,0,0,0,.206-.465q.067-.328.123-.739c.036-.274.063-.565.082-.875s.027-.611.027-.9c0-.256,0-.6.014-1.04s.018-.916.027-1.436.013-1.053.013-1.6v-7.9q0-.493-.04-.916a5.845,5.845,0,0,0-.123-.766,1.265,1.265,0,0,0-.246-.533,2.152,2.152,0,0,0-.985-.684,6.434,6.434,0,0,0-1.286-.273V32.88q1.148,0,3.309-.014t5.225-.014h1.751q.9,0,1.805.082a15.5,15.5,0,0,1,1.806.274,9.182,9.182,0,0,1,1.777.574,10.291,10.291,0,0,1,2.161,1.258,8.385,8.385,0,0,1,1.765,1.819,8.948,8.948,0,0,1,1.2,2.435,10.152,10.152,0,0,1,.451,3.159,12.017,12.017,0,0,1-.492,3.61m-3.365-6.646a9.89,9.89,0,0,0-1.368-2.722,8.75,8.75,0,0,0-2.079-2.065,6.415,6.415,0,0,0-2.626-1.094q-.548-.109-1.2-.178a16.058,16.058,0,0,0-1.615-.068q-.328,0-.711.013t-.752.055c-.246.028-.475.05-.684.068a2.776,2.776,0,0,0-.506.082q-.138,1.34-.164,3.692t-.028,5.607v3.2q0,1.423.028,2.324c0,.256.013.534.041.835s.058.593.1.875a3.627,3.627,0,0,0,.178.765,1.364,1.364,0,0,0,.287.507,2.53,2.53,0,0,0,1.381.7,8.862,8.862,0,0,0,1.572.15q.684,0,1.409-.068a6.771,6.771,0,0,0,1.354-.26,7.252,7.252,0,0,0,4.417-3.3,11.566,11.566,0,0,0,1.464-6.031,9.883,9.883,0,0,0-.492-3.091" transform="translate(-277.889 -32.579)" fill="#ffffff"/>
      <path id="Path_4077" data-name="Path 4077" d="M481.419,33.578a4.225,4.225,0,0,0-1.012.711,6.807,6.807,0,0,0-.889,1.039q-.425.6-.916,1.368-.329.52-.916,1.409t-1.2,1.846q-.616.958-1.19,1.833t-.9,1.367v5.5q0,.793.04,1.546a2.063,2.063,0,0,0,.26,1.053,1.913,1.913,0,0,0,1.067.793,12.734,12.734,0,0,0,1.258.3v.273h-8.425v-.273a6.225,6.225,0,0,0,1.244-.26,2.8,2.8,0,0,0,1.135-.862.922.922,0,0,0,.206-.464c.045-.219.082-.466.109-.739s.045-.565.054-.875.014-.611.014-.9q.027-.765.04-1.819t.015-2.557c-.037-.055-.147-.228-.329-.52s-.405-.652-.67-1.081-.556-.907-.875-1.436-.634-1.044-.944-1.546-.6-.971-.875-1.409-.5-.793-.684-1.067q-.52-.793-.943-1.449a7.923,7.923,0,0,0-.862-1.122,4.758,4.758,0,0,0-.861-.739,1.943,1.943,0,0,0-.971-.3v-.273h8.288V33.2c-.273.019-.547.046-.82.082a3.918,3.918,0,0,0-.766.178,1.581,1.581,0,0,0-.574.328.731.731,0,0,0-.219.56,2.609,2.609,0,0,0,.4,1.08q.4.726.834,1.463.3.493.712,1.19t.9,1.477q.493.779,1,1.6t.943,1.559q.356-.519.875-1.327t1.053-1.641q.534-.834,1.012-1.6t.725-1.2c.091-.145.191-.315.3-.506s.214-.392.315-.6a5.422,5.422,0,0,0,.26-.642,1.926,1.926,0,0,0,.109-.6.994.994,0,0,0-.219-.684,1.464,1.464,0,0,0-.561-.383,3.648,3.648,0,0,0-.752-.205q-.41-.068-.794-.123v-.273h6.319V33.2a4.311,4.311,0,0,0-1.313.383" transform="translate(-310.795 -32.621)" fill="#ffffff"/>
       <path id="Path_4078" data-name="Path 4078" d="M88.393,100.536a.792.792,0,0,0-.446.315,1.083,1.083,0,0,0-.123.523q-.015.353-.015.707v2.243a3.29,3.29,0,0,1-.531.308,9.6,9.6,0,0,1-1.029.438,9.694,9.694,0,0,1-1.345.376,7.2,7.2,0,0,1-1.476.154,8.414,8.414,0,0,1-2.613-.376,5.2,5.2,0,0,1-1.944-1.107,4.827,4.827,0,0,1-1.215-1.783,6.278,6.278,0,0,1-.422-2.359,5.816,5.816,0,0,1,.077-.883,5.977,5.977,0,0,1,.269-1.054,5.867,5.867,0,0,1,.538-1.121,5.413,5.413,0,0,1,.869-1.076A5.531,5.531,0,0,1,80.8,94.679a6.93,6.93,0,0,1,2.612-.437,7.381,7.381,0,0,1,1.63.161,8.218,8.218,0,0,1,1.191.353,4.956,4.956,0,0,1,.746.354,1.536,1.536,0,0,0,.292.161q.031,0,.169-.184t.338-.446h.139v3.351h-.185a5.337,5.337,0,0,0-.507-1.306,4.769,4.769,0,0,0-.722-1.015,3.631,3.631,0,0,0-1.26-.845,4.411,4.411,0,0,0-1.721-.322,3.7,3.7,0,0,0-1.829.453,4.358,4.358,0,0,0-1.384,1.214,5.743,5.743,0,0,0-.876,1.752,6.987,6.987,0,0,0-.307,2.083,7.728,7.728,0,0,0,.292,2.19,5.03,5.03,0,0,0,.845,1.7,3.848,3.848,0,0,0,1.353,1.1,4.1,4.1,0,0,0,1.829.392,3.7,3.7,0,0,0,1.376-.254,2.09,2.09,0,0,0,1.006-.822,1.885,1.885,0,0,0,.185-.707,8.649,8.649,0,0,0,.062-1.045,7.842,7.842,0,0,0-.054-.968,1.22,1.22,0,0,0-.315-.707,1.828,1.828,0,0,0-1.245-.477v-.154h4.5v.154a2.971,2.971,0,0,0-.569.131" transform="translate(-77.235 -69.709)" fill="#ffffff"/>
       <path id="Path_4079" data-name="Path 4079" d="M118.3,105.828c-.092-.093-.158-.162-.2-.208s-.087-.1-.138-.161a3.039,3.039,0,0,1-.192-.269c-.077-.118-.2-.294-.361-.531q-.292-.429-.515-.776t-.454-.684q-.23-.338-.5-.684t-.637-.777a6.286,6.286,0,0,0-.669-.661,1.653,1.653,0,0,0-.761-.385,2.383,2.383,0,0,0-.446-.061q-.139,0-.354-.016v1.736q0,.739.015,1.246c.01.328.02.609.03.845a1.122,1.122,0,0,0,.169.584,1.352,1.352,0,0,0,.477.407,2.171,2.171,0,0,0,.984.238v.154h-4.918v-.154a4.267,4.267,0,0,0,.737-.184,1.2,1.2,0,0,0,.554-.369.7.7,0,0,0,.123-.277,2.876,2.876,0,0,0,.069-.414q.023-.231.038-.492t.015-.507c0-.144,0-.338.008-.584s.01-.515.015-.807.007-.591.007-.9V97.252q0-.277-.007-.562c-.006-.189-.015-.369-.031-.537a2.933,2.933,0,0,0-.077-.462.653.653,0,0,0-.146-.3,1.151,1.151,0,0,0-.515-.331,5.072,5.072,0,0,0-.7-.146v-.154h.63q.522,0,1.184-.008t1.321-.008h1.076q1.03,0,1.829.062a3.644,3.644,0,0,1,1.46.415,2.965,2.965,0,0,1,1.092.961,2.652,2.652,0,0,1,.415,1.529,2.433,2.433,0,0,1-.207,1.022,2.726,2.726,0,0,1-.554.8,3.384,3.384,0,0,1-.807.591,6.166,6.166,0,0,1-.968.415v.046a2.017,2.017,0,0,1,.507.4,5.643,5.643,0,0,1,.476.585q.4.584.868,1.26t.838,1.2a4.7,4.7,0,0,0,1.107,1.169,2.964,2.964,0,0,0,1.26.476v.154Zm-1.521-9.575a2.658,2.658,0,0,0-1.122-.954,3.348,3.348,0,0,0-.777-.245,4.579,4.579,0,0,0-.853-.077c-.215,0-.39.005-.523.016s-.236.021-.307.03q-.015.092-.031.161a1.2,1.2,0,0,0-.023.177c-.006.072-.01.171-.015.3s-.013.31-.023.546q-.016.538-.023,1.214t-.008,1.306v1.691q.63,0,1.176-.054a4.848,4.848,0,0,0,1.053-.223,2.829,2.829,0,0,0,.845-.415,2.414,2.414,0,0,0,.577-.591,2.458,2.458,0,0,0,.33-.715,2.956,2.956,0,0,0,.107-.8,2.479,2.479,0,0,0-.384-1.368" transform="translate(-96.949 -70.014)" fill="#ffffff"/>
       <path id="Path_4080" data-name="Path 4080" d="M150.065,102.282a5.708,5.708,0,0,1-1.252,1.813,5.525,5.525,0,0,1-1.844,1.184,6.222,6.222,0,0,1-4.45.007,5.525,5.525,0,0,1-1.829-1.153,5.411,5.411,0,0,1-1.237-1.783,5.63,5.63,0,0,1-.454-2.283,5.7,5.7,0,0,1,.476-2.374,5.336,5.336,0,0,1,1.284-1.783,5.639,5.639,0,0,1,1.891-1.122,6.65,6.65,0,0,1,2.283-.392,5.713,5.713,0,0,1,2.344.461,5.322,5.322,0,0,1,1.76,1.237,5.421,5.421,0,0,1,1.106,1.79,5.942,5.942,0,0,1,.385,2.121,5.568,5.568,0,0,1-.462,2.275m-1.683-4.151a6.013,6.013,0,0,0-.722-1.729,4.131,4.131,0,0,0-1.206-1.26,3,3,0,0,0-1.706-.484,3.057,3.057,0,0,0-1.729.484,3.959,3.959,0,0,0-1.2,1.253,5.812,5.812,0,0,0-.692,1.745,8.869,8.869,0,0,0-.223,1.975,8.151,8.151,0,0,0,.246,2.014,5.582,5.582,0,0,0,.73,1.706,3.812,3.812,0,0,0,1.214,1.183,3.184,3.184,0,0,0,1.7.446,2.9,2.9,0,0,0,1.683-.492,4.15,4.15,0,0,0,1.191-1.268,6.115,6.115,0,0,0,.715-1.745,8.074,8.074,0,0,0,.238-1.936,7.778,7.778,0,0,0-.238-1.891" transform="translate(-114.592 -69.803)" fill="#ffffff"/>
       <path id="Path_4081" data-name="Path 4081" d="M181.887,95.232a1.4,1.4,0,0,0-.515.661,1.641,1.641,0,0,0-.084.354q-.038.245-.069.568t-.046.684q-.015.362-.015.715-.015.66-.038,1.475t-.054,1.844q-.015.293-.038.737a5.057,5.057,0,0,1-.146.945,4.271,4.271,0,0,1-.392,1,3.073,3.073,0,0,1-.761.907,3.643,3.643,0,0,1-1.26.646,7.645,7.645,0,0,1-3.758.007,3.713,3.713,0,0,1-1.253-.623,3.046,3.046,0,0,1-.761-.861,4.155,4.155,0,0,1-.4-.922,3.866,3.866,0,0,1-.154-.829c-.015-.252-.023-.438-.023-.562q0-.43.008-1.122t.008-1.536v-2.6q0-.277-.023-.515a3.143,3.143,0,0,0-.069-.43.711.711,0,0,0-.138-.3,1.224,1.224,0,0,0-.53-.377,3.142,3.142,0,0,0-.715-.161v-.154h4.58v.154q-.216.031-.461.092a1.438,1.438,0,0,0-.446.192,1.086,1.086,0,0,0-.338.361,1.227,1.227,0,0,0-.154.584q-.015.4-.023.707t-.008.6v3.059c0,.236,0,.464.008.684s.008.454.008.7a4.792,4.792,0,0,0,.246,1.483,3.334,3.334,0,0,0,.646,1.138,2.779,2.779,0,0,0,1.014.722,3.476,3.476,0,0,0,1.368.254,4.767,4.767,0,0,0,1.484-.2,2.89,2.89,0,0,0,1.014-.553,2.729,2.729,0,0,0,.646-.814,4,4,0,0,0,.353-.983,7.327,7.327,0,0,0,.154-1.069q.038-.545.038-1.068V98.214q0-.308-.008-.63c-.005-.216-.013-.42-.023-.615s-.026-.377-.046-.546a1.656,1.656,0,0,0-.092-.407,1.439,1.439,0,0,0-.53-.7,2.567,2.567,0,0,0-1.114-.376v-.154h3.811v.154a2.177,2.177,0,0,0-.9.292" transform="translate(-133.74 -70.038)" fill="#ffffff"/>
       <path id="Path_4082" data-name="Path 4082" d="M212.2,98.965a2.945,2.945,0,0,1-.484.815,3.061,3.061,0,0,1-.7.607,4.287,4.287,0,0,1-.815.407,5.042,5.042,0,0,1-.922.231q-.492.077-.992.115t-.976.038h-.83v1.446c0,.174,0,.336.007.484s.008.31.008.485c.01.327.021.609.031.845a1.118,1.118,0,0,0,.169.584,1.3,1.3,0,0,0,.476.4,2.23,2.23,0,0,0,.984.231v.154h-4.918v-.154a4.27,4.27,0,0,0,.738-.184,1.206,1.206,0,0,0,.554-.369.7.7,0,0,0,.123-.277,2.89,2.89,0,0,0,.069-.414q.023-.231.039-.492t.015-.507c0-.144,0-.338.008-.585s.01-.514.015-.807.008-.591.008-.9V97.229q0-.277-.008-.562t-.03-.537a2.932,2.932,0,0,0-.077-.462.657.657,0,0,0-.146-.3,1.154,1.154,0,0,0-.592-.331q-.362-.084-.777-.145v-.154h.369q.292,0,.684-.007c.262-.006.545-.008.853-.008s.612,0,.914-.008.586-.008.853-.008h.691a14.423,14.423,0,0,1,1.8.1,4.069,4.069,0,0,1,1.475.484,3.123,3.123,0,0,1,1.122,1.045,2.839,2.839,0,0,1,.446,1.6,2.752,2.752,0,0,1-.185,1.029m-1.929-2.69a2.9,2.9,0,0,0-1.191-1.044,2.856,2.856,0,0,0-.784-.231,5.853,5.853,0,0,0-.861-.062,4.188,4.188,0,0,0-.5.023l-.284.039a1.129,1.129,0,0,1-.038.161,1,1,0,0,0-.038.177c-.01.072-.021.171-.031.3s-.021.31-.03.546q-.015.538-.023,1.306T206.479,99v1.967q.629,0,1.183-.038a3.885,3.885,0,0,0,1.029-.207A2.88,2.88,0,0,0,210.2,99.6a3.051,3.051,0,0,0,.523-1.744,2.827,2.827,0,0,0-.453-1.583" transform="translate(-153.406 -69.991)" fill="#ffffff"/>
    </g>
  </g>
</svg>
